<svg width="2045" height="1983" viewBox="0 0 2045 1983" fill="none" xmlns="http://www.w3.org/2000/svg">
<g filter="url(#filter0_d_991_8)">
<path fill-rule="evenodd" clip-rule="evenodd" d="M70.5 3C34.3253 3 5 32.3253 5 68.5C5 104.675 34.3253 134 70.5 134H993.5V300.5H484.5C446.116 300.5 415 331.616 415 370V677.5C415 715.884 446.116 747 484.5 747H1734.5V1180H775.5C737.116 1180 706 1211.12 706 1249.5V1634.3C706 1666.82 728.56 1695 760.3 1702.11L1955.18 1969.91C1990.47 1977.83 2025.5 1955.62 2033.41 1920.32C2041.33 1885.03 2019.12 1850 1983.82 1842.09L837 1585.06V1311H1796C1834.38 1311 1865.5 1279.88 1865.5 1241.5V685.5C1865.5 647.117 1834.38 616 1796 616H546V431.5H1055C1093.38 431.5 1124.5 400.384 1124.5 362V72.5C1124.5 34.1157 1093.38 3 1055 3H70.5ZM70.5 66C69.1193 66 68 67.1193 68 68.5C68 69.8807 69.1193 71 70.5 71H95.1125C96.4932 71 97.6125 69.8807 97.6125 68.5C97.6125 67.1193 96.4932 66 95.1125 66H70.5ZM144.337 66C142.957 66 141.837 67.1193 141.837 68.5C141.837 69.8807 142.957 71 144.337 71H193.562C194.943 71 196.062 69.8807 196.062 68.5C196.062 67.1193 194.943 66 193.562 66H144.337ZM242.787 66C241.407 66 240.287 67.1193 240.287 68.5C240.287 69.8807 241.407 71 242.787 71H292.012C293.393 71 294.512 69.8807 294.512 68.5C294.512 67.1193 293.393 66 292.012 66H242.787ZM341.237 66C339.857 66 338.737 67.1193 338.737 68.5C338.737 69.8807 339.857 71 341.237 71H390.462C391.843 71 392.962 69.8807 392.962 68.5C392.962 67.1193 391.843 66 390.462 66H341.237ZM439.688 66C438.307 66 437.188 67.1193 437.188 68.5C437.188 69.8807 438.307 71 439.688 71H488.913C490.293 71 491.413 69.8807 491.413 68.5C491.413 67.1193 490.293 66 488.913 66H439.688ZM538.138 66C536.757 66 535.638 67.1193 535.638 68.5C535.638 69.8807 536.757 71 538.138 71H587.362C588.743 71 589.862 69.8807 589.862 68.5C589.862 67.1193 588.743 66 587.362 66H538.138ZM636.587 66C635.207 66 634.087 67.1193 634.087 68.5C634.087 69.8807 635.207 71 636.587 71H685.812C687.193 71 688.312 69.8807 688.312 68.5C688.312 67.1193 687.193 66 685.812 66H636.587ZM735.037 66C733.657 66 732.537 67.1193 732.537 68.5C732.537 69.8807 733.657 71 735.037 71H784.262C785.643 71 786.762 69.8807 786.762 68.5C786.762 67.1193 785.643 66 784.262 66H735.037ZM833.487 66C832.107 66 830.987 67.1193 830.987 68.5C830.987 69.8807 832.107 71 833.487 71H882.712C884.093 71 885.212 69.8807 885.212 68.5C885.212 67.1193 884.093 66 882.712 66H833.487ZM931.937 66C930.557 66 929.437 67.1193 929.437 68.5C929.437 69.8807 930.557 71 931.937 71H981.162C982.543 71 983.662 69.8807 983.662 68.5C983.662 67.1193 982.543 66 981.162 66H931.937ZM1030.39 66C1029.01 66 1027.89 67.1193 1027.89 68.5C1027.89 69.8807 1029.01 71 1030.39 71H1055C1055.83 71 1056.5 71.6716 1056.5 72.5V96.625C1056.5 98.0057 1057.62 99.125 1059 99.125C1060.38 99.125 1061.5 98.0057 1061.5 96.625V72.5C1061.5 68.9101 1058.59 66 1055 66H1030.39ZM1061.5 144.875C1061.5 143.494 1060.38 142.375 1059 142.375C1057.62 142.375 1056.5 143.494 1056.5 144.875V193.125C1056.5 194.506 1057.62 195.625 1059 195.625C1060.38 195.625 1061.5 194.506 1061.5 193.125V144.875ZM1061.5 241.375C1061.5 239.994 1060.38 238.875 1059 238.875C1057.62 238.875 1056.5 239.994 1056.5 241.375V289.625C1056.5 291.006 1057.62 292.125 1059 292.125C1060.38 292.125 1061.5 291.006 1061.5 289.625V241.375ZM1061.5 337.875C1061.5 336.494 1060.38 335.375 1059 335.375C1057.62 335.375 1056.5 336.494 1056.5 337.875V362C1056.5 362.828 1055.83 363.5 1055 363.5H1031.23C1029.85 363.5 1028.73 364.619 1028.73 366C1028.73 367.381 1029.85 368.5 1031.23 368.5H1055C1058.59 368.5 1061.5 365.59 1061.5 362V337.875ZM484.5 363.5C480.91 363.5 478 366.41 478 370V395.625C478 397.006 479.119 398.125 480.5 398.125C481.881 398.125 483 397.006 483 395.625V370C483 369.172 483.672 368.5 484.5 368.5H508.271C509.652 368.5 510.771 367.381 510.771 366C510.771 364.619 509.652 363.5 508.271 363.5H484.5ZM555.812 363.5C554.432 363.5 553.312 364.619 553.312 366C553.312 367.381 554.432 368.5 555.812 368.5H603.354C604.735 368.5 605.854 367.381 605.854 366C605.854 364.619 604.735 363.5 603.354 363.5H555.812ZM650.896 363.5C649.515 363.5 648.396 364.619 648.396 366C648.396 367.381 649.515 368.5 650.896 368.5H698.438C699.818 368.5 700.938 367.381 700.938 366C700.938 364.619 699.818 363.5 698.438 363.5H650.896ZM745.979 363.5C744.598 363.5 743.479 364.619 743.479 366C743.479 367.381 744.598 368.5 745.979 368.5H793.521C794.902 368.5 796.021 367.381 796.021 366C796.021 364.619 794.902 363.5 793.521 363.5H745.979ZM841.062 363.5C839.682 363.5 838.562 364.619 838.562 366C838.562 367.381 839.682 368.5 841.062 368.5H888.604C889.985 368.5 891.104 367.381 891.104 366C891.104 364.619 889.985 363.5 888.604 363.5H841.062ZM936.146 363.5C934.765 363.5 933.646 364.619 933.646 366C933.646 367.381 934.765 368.5 936.146 368.5H983.688C985.068 368.5 986.188 367.381 986.188 366C986.188 364.619 985.068 363.5 983.688 363.5H936.146ZM483 446.875C483 445.494 481.881 444.375 480.5 444.375C479.119 444.375 478 445.494 478 446.875V498.125C478 499.506 479.119 500.625 480.5 500.625C481.881 500.625 483 499.506 483 498.125V446.875ZM483 549.375C483 547.994 481.881 546.875 480.5 546.875C479.119 546.875 478 547.994 478 549.375V600.625C478 602.006 479.119 603.125 480.5 603.125C481.881 603.125 483 602.006 483 600.625V549.375ZM483 651.875C483 650.494 481.881 649.375 480.5 649.375C479.119 649.375 478 650.494 478 651.875V677.5C478 681.09 480.91 684 484.5 684H509.788C511.169 684 512.288 682.881 512.288 681.5C512.288 680.119 511.169 679 509.788 679H484.5C483.672 679 483 678.328 483 677.5V651.875ZM560.365 679C558.985 679 557.865 680.119 557.865 681.5C557.865 682.881 558.985 684 560.365 684H610.942C612.323 684 613.442 682.881 613.442 681.5C613.442 680.119 612.323 679 610.942 679H560.365ZM661.519 679C660.138 679 659.019 680.119 659.019 681.5C659.019 682.881 660.138 684 661.519 684H712.096C713.477 684 714.596 682.881 714.596 681.5C714.596 680.119 713.477 679 712.096 679H661.519ZM762.673 679C761.292 679 760.173 680.119 760.173 681.5C760.173 682.881 761.292 684 762.673 684H813.25C814.631 684 815.75 682.881 815.75 681.5C815.75 680.119 814.631 679 813.25 679H762.673ZM863.827 679C862.446 679 861.327 680.119 861.327 681.5C861.327 682.881 862.446 684 863.827 684H914.404C915.785 684 916.904 682.881 916.904 681.5C916.904 680.119 915.785 679 914.404 679H863.827ZM964.981 679C963.6 679 962.481 680.119 962.481 681.5C962.481 682.881 963.6 684 964.981 684H1015.56C1016.94 684 1018.06 682.881 1018.06 681.5C1018.06 680.119 1016.94 679 1015.56 679H964.981ZM1066.13 679C1064.75 679 1063.63 680.119 1063.63 681.5C1063.63 682.881 1064.75 684 1066.13 684H1116.71C1118.09 684 1119.21 682.881 1119.21 681.5C1119.21 680.119 1118.09 679 1116.71 679H1066.13ZM1167.29 679C1165.91 679 1164.79 680.119 1164.79 681.5C1164.79 682.881 1165.91 684 1167.29 684H1217.87C1219.25 684 1220.37 682.881 1220.37 681.5C1220.37 680.119 1219.25 679 1217.87 679H1167.29ZM1268.44 679C1267.06 679 1265.94 680.119 1265.94 681.5C1265.94 682.881 1267.06 684 1268.44 684H1319.02C1320.4 684 1321.52 682.881 1321.52 681.5C1321.52 680.119 1320.4 679 1319.02 679H1268.44ZM1369.6 679C1368.22 679 1367.1 680.119 1367.1 681.5C1367.1 682.881 1368.22 684 1369.6 684H1420.17C1421.55 684 1422.67 682.881 1422.67 681.5C1422.67 680.119 1421.55 679 1420.17 679H1369.6ZM1470.75 679C1469.37 679 1468.25 680.119 1468.25 681.5C1468.25 682.881 1469.37 684 1470.75 684H1521.33C1522.71 684 1523.83 682.881 1523.83 681.5C1523.83 680.119 1522.71 679 1521.33 679H1470.75ZM1571.9 679C1570.52 679 1569.4 680.119 1569.4 681.5C1569.4 682.881 1570.52 684 1571.9 684H1622.48C1623.86 684 1624.98 682.881 1624.98 681.5C1624.98 680.119 1623.86 679 1622.48 679H1571.9ZM1673.06 679C1671.68 679 1670.56 680.119 1670.56 681.5C1670.56 682.881 1671.68 684 1673.06 684H1723.63C1725.02 684 1726.13 682.881 1726.13 681.5C1726.13 680.119 1725.02 679 1723.63 679H1673.06ZM1774.21 679C1772.83 679 1771.71 680.119 1771.71 681.5C1771.71 682.881 1772.83 684 1774.21 684H1799.5C1800.33 684 1801 684.672 1801 685.5V708.667C1801 710.047 1802.12 711.167 1803.5 711.167C1804.88 711.167 1806 710.047 1806 708.667V685.5C1806 681.91 1803.09 679 1799.5 679H1774.21ZM1806 755C1806 753.619 1804.88 752.5 1803.5 752.5C1802.12 752.5 1801 753.619 1801 755V801.333C1801 802.714 1802.12 803.833 1803.5 803.833C1804.88 803.833 1806 802.714 1806 801.333V755ZM1806 847.667C1806 846.286 1804.88 845.167 1803.5 845.167C1802.12 845.167 1801 846.286 1801 847.667V894C1801 895.381 1802.12 896.5 1803.5 896.5C1804.88 896.5 1806 895.381 1806 894V847.667ZM1806 940.333C1806 938.953 1804.88 937.833 1803.5 937.833C1802.12 937.833 1801 938.953 1801 940.333V986.667C1801 988.047 1802.12 989.167 1803.5 989.167C1804.88 989.167 1806 988.047 1806 986.667V940.333ZM1806 1033C1806 1031.62 1804.88 1030.5 1803.5 1030.5C1802.12 1030.5 1801 1031.62 1801 1033V1079.33C1801 1080.71 1802.12 1081.83 1803.5 1081.83C1804.88 1081.83 1806 1080.71 1806 1079.33V1033ZM1806 1125.67C1806 1124.29 1804.88 1123.17 1803.5 1123.17C1802.12 1123.17 1801 1124.29 1801 1125.67V1172C1801 1173.38 1802.12 1174.5 1803.5 1174.5C1804.88 1174.5 1806 1173.38 1806 1172V1125.67ZM1806 1218.33C1806 1216.95 1804.88 1215.83 1803.5 1215.83C1802.12 1215.83 1801 1216.95 1801 1218.33V1241.5C1801 1242.33 1800.33 1243 1799.5 1243H1773.9C1772.52 1243 1771.4 1244.12 1771.4 1245.5C1771.4 1246.88 1772.52 1248 1773.9 1248H1799.5C1803.09 1248 1806 1245.09 1806 1241.5V1218.33ZM775.5 1243C771.91 1243 769 1245.91 769 1249.5V1272.93C769 1274.31 770.119 1275.43 771.5 1275.43C772.881 1275.43 774 1274.31 774 1272.93V1249.5C774 1248.67 774.672 1248 775.5 1248H801.1C802.481 1248 803.6 1246.88 803.6 1245.5C803.6 1244.12 802.481 1243 801.1 1243H775.5ZM852.3 1243C850.919 1243 849.8 1244.12 849.8 1245.5C849.8 1246.88 850.919 1248 852.3 1248H903.5C904.881 1248 906 1246.88 906 1245.5C906 1244.12 904.881 1243 903.5 1243H852.3ZM954.7 1243C953.319 1243 952.2 1244.12 952.2 1245.5C952.2 1246.88 953.319 1248 954.7 1248H1005.9C1007.28 1248 1008.4 1246.88 1008.4 1245.5C1008.4 1244.12 1007.28 1243 1005.9 1243H954.7ZM1057.1 1243C1055.72 1243 1054.6 1244.12 1054.6 1245.5C1054.6 1246.88 1055.72 1248 1057.1 1248H1108.3C1109.68 1248 1110.8 1246.88 1110.8 1245.5C1110.8 1244.12 1109.68 1243 1108.3 1243H1057.1ZM1159.5 1243C1158.12 1243 1157 1244.12 1157 1245.5C1157 1246.88 1158.12 1248 1159.5 1248H1210.7C1212.08 1248 1213.2 1246.88 1213.2 1245.5C1213.2 1244.12 1212.08 1243 1210.7 1243H1159.5ZM1261.9 1243C1260.52 1243 1259.4 1244.12 1259.4 1245.5C1259.4 1246.88 1260.52 1248 1261.9 1248H1313.1C1314.48 1248 1315.6 1246.88 1315.6 1245.5C1315.6 1244.12 1314.48 1243 1313.1 1243H1261.9ZM1364.3 1243C1362.92 1243 1361.8 1244.12 1361.8 1245.5C1361.8 1246.88 1362.92 1248 1364.3 1248H1415.5C1416.88 1248 1418 1246.88 1418 1245.5C1418 1244.12 1416.88 1243 1415.5 1243H1364.3ZM1466.7 1243C1465.32 1243 1464.2 1244.12 1464.2 1245.5C1464.2 1246.88 1465.32 1248 1466.7 1248H1517.9C1519.28 1248 1520.4 1246.88 1520.4 1245.5C1520.4 1244.12 1519.28 1243 1517.9 1243H1466.7ZM1569.1 1243C1567.72 1243 1566.6 1244.12 1566.6 1245.5C1566.6 1246.88 1567.72 1248 1569.1 1248H1620.3C1621.68 1248 1622.8 1246.88 1622.8 1245.5C1622.8 1244.12 1621.68 1243 1620.3 1243H1569.1ZM1671.5 1243C1670.12 1243 1669 1244.12 1669 1245.5C1669 1246.88 1670.12 1248 1671.5 1248H1722.7C1724.08 1248 1725.2 1246.88 1725.2 1245.5C1725.2 1244.12 1724.08 1243 1722.7 1243H1671.5ZM774 1319.78C774 1318.4 772.881 1317.28 771.5 1317.28C770.119 1317.28 769 1318.4 769 1319.78V1366.63C769 1368.01 770.119 1369.13 771.5 1369.13C772.881 1369.13 774 1368.01 774 1366.63V1319.78ZM774 1413.48C774 1412.1 772.881 1410.98 771.5 1410.98C770.119 1410.98 769 1412.1 769 1413.48V1460.34C769 1461.72 770.119 1462.84 771.5 1462.84C772.881 1462.84 774 1461.72 774 1460.34V1413.48ZM774 1507.19C774 1505.81 772.881 1504.69 771.5 1504.69C770.119 1504.69 769 1505.81 769 1507.19V1554.04C769 1555.42 770.119 1556.54 771.5 1556.54C772.881 1556.54 774 1555.42 774 1554.04V1507.19ZM774 1600.9C774 1599.51 772.881 1598.4 771.5 1598.4C770.119 1598.4 769 1599.51 769 1600.9V1624.32C769 1627.35 771.085 1629.97 774.031 1630.65L799.154 1636.48C800.499 1636.79 801.842 1635.96 802.154 1634.61C802.466 1633.27 801.629 1631.92 800.284 1631.61L775.161 1625.78C774.481 1625.63 774 1625.02 774 1624.32V1600.9ZM850.53 1643.27C849.185 1642.96 847.842 1643.79 847.53 1645.14C847.218 1646.48 848.055 1647.83 849.4 1648.14L899.646 1659.8C900.991 1660.11 902.334 1659.27 902.646 1657.93C902.958 1656.58 902.121 1655.24 900.776 1654.93L850.53 1643.27ZM951.022 1666.58C949.677 1666.27 948.334 1667.11 948.022 1668.45C947.71 1669.8 948.547 1671.14 949.892 1671.46L1000.14 1683.11C1001.48 1683.42 1002.83 1682.59 1003.14 1681.24C1003.45 1679.9 1002.61 1678.55 1001.27 1678.24L951.022 1666.58ZM1051.51 1689.9C1050.17 1689.59 1048.83 1690.42 1048.51 1691.77C1048.2 1693.11 1049.04 1694.46 1050.38 1694.77L1100.63 1706.43C1101.97 1706.74 1103.32 1705.9 1103.63 1704.56C1103.94 1703.21 1103.1 1701.87 1101.76 1701.56L1051.51 1689.9ZM1152.01 1713.21C1150.66 1712.9 1149.32 1713.74 1149.01 1715.09C1148.69 1716.43 1149.53 1717.77 1150.88 1718.09L1201.12 1729.74C1202.47 1730.06 1203.81 1729.22 1204.12 1727.87C1204.43 1726.53 1203.6 1725.18 1202.25 1724.87L1152.01 1713.21ZM1252.5 1736.53C1251.15 1736.22 1249.81 1737.06 1249.5 1738.4C1249.19 1739.75 1250.02 1741.09 1251.37 1741.4L1301.61 1753.06C1302.96 1753.37 1304.3 1752.53 1304.61 1751.19C1304.93 1749.84 1304.09 1748.5 1302.74 1748.19L1252.5 1736.53ZM1352.99 1759.85C1351.65 1759.53 1350.3 1760.37 1349.99 1761.72C1349.68 1763.06 1350.52 1764.4 1351.86 1764.72L1402.11 1776.37C1403.45 1776.69 1404.79 1775.85 1405.11 1774.5C1405.42 1773.16 1404.58 1771.81 1403.24 1771.5L1352.99 1759.85ZM1453.48 1783.16C1452.14 1782.85 1450.79 1783.69 1450.48 1785.03C1450.17 1786.38 1451.01 1787.72 1452.35 1788.03L1502.6 1799.69C1503.94 1800 1505.29 1799.16 1505.6 1797.82C1505.91 1796.47 1505.07 1795.13 1503.73 1794.82L1453.48 1783.16ZM1553.97 1806.48C1552.63 1806.16 1551.29 1807 1550.97 1808.35C1550.66 1809.69 1551.5 1811.03 1552.84 1811.35L1603.09 1823C1604.44 1823.32 1605.78 1822.48 1606.09 1821.13C1606.4 1819.79 1605.57 1818.44 1604.22 1818.13L1553.97 1806.48ZM1654.47 1829.79C1653.12 1829.48 1651.78 1830.32 1651.47 1831.66C1651.15 1833.01 1651.99 1834.35 1653.34 1834.66L1703.58 1846.32C1704.93 1846.63 1706.27 1845.79 1706.58 1844.45C1706.89 1843.1 1706.06 1841.76 1704.71 1841.45L1654.47 1829.79ZM1754.96 1853.11C1753.61 1852.79 1752.27 1853.63 1751.96 1854.98C1751.65 1856.32 1752.48 1857.66 1753.83 1857.98L1804.07 1869.63C1805.42 1869.95 1806.76 1869.11 1807.07 1867.76C1807.39 1866.42 1806.55 1865.08 1805.2 1864.76L1754.96 1853.11ZM1855.45 1876.42C1854.11 1876.11 1852.76 1876.95 1852.45 1878.29C1852.14 1879.64 1852.98 1880.98 1854.32 1881.29L1904.57 1892.95C1905.91 1893.26 1907.25 1892.42 1907.57 1891.08C1907.88 1889.73 1907.04 1888.39 1905.7 1888.08L1855.45 1876.42ZM1955.94 1899.74C1954.6 1899.42 1953.25 1900.26 1952.94 1901.61C1952.63 1902.95 1953.47 1904.29 1954.81 1904.61L1979.93 1910.44C1981.28 1910.75 1982.62 1909.91 1982.94 1908.57C1983.25 1907.22 1982.41 1905.88 1981.07 1905.56L1955.94 1899.74Z" fill="#212121"/>
</g>
<defs>
<filter id="filter0_d_991_8" x="0" y="0" width="2044.01" height="1982.51" filterUnits="userSpaceOnUse" color-interpolation-filters="sRGB">
<feFlood flood-opacity="0" result="BackgroundImageFix"/>
<feColorMatrix in="SourceAlpha" type="matrix" values="0 0 0 0 0 0 0 0 0 0 0 0 0 0 0 0 0 0 127 0" result="hardAlpha"/>
<feOffset dx="2" dy="4"/>
<feGaussianBlur stdDeviation="3.5"/>
<feComposite in2="hardAlpha" operator="out"/>
<feColorMatrix type="matrix" values="0 0 0 0 0 0 0 0 0 0 0 0 0 0 0 0 0 0 0.25 0"/>
<feBlend mode="normal" in2="BackgroundImageFix" result="effect1_dropShadow_991_8"/>
<feBlend mode="normal" in="SourceGraphic" in2="effect1_dropShadow_991_8" result="shape"/>
</filter>
</defs>
</svg>
