<svg width="460" height="258" viewBox="0 0 460 258" fill="none" xmlns="http://www.w3.org/2000/svg">
<g filter="url(#filter0_i_991_9)">
<path d="M437.597 242L401.287 217.627C364.138 192.692 365.968 137.538 404.687 115.111L421.498 105.398C451.925 87.7738 452.672 45.873 424.529 24.8028C416.03 18.4397 405.693 15 395.069 15H110.267C105.794 15 101.331 15.4069 96.9325 16.2158L82.5409 18.8622C5.89756 32.9561 5.00497 142.289 81.408 157.628C88.1159 159.637 118.033 163.655 135.742 163.655M87.4451 86.7249H123.707C219.094 92.3055 220.891 231.967 125.68 239.991H15M349.053 79.2832H306.793V242" stroke="black" stroke-width="30" stroke-linecap="round" stroke-linejoin="round"/>
</g>
<defs>
<filter id="filter0_i_991_9" x="0" y="0" width="459.992" height="261.002" filterUnits="userSpaceOnUse" color-interpolation-filters="sRGB">
<feFlood flood-opacity="0" result="BackgroundImageFix"/>
<feBlend mode="normal" in="SourceGraphic" in2="BackgroundImageFix" result="shape"/>
<feColorMatrix in="SourceAlpha" type="matrix" values="0 0 0 0 0 0 0 0 0 0 0 0 0 0 0 0 0 0 127 0" result="hardAlpha"/>
<feOffset dy="4"/>
<feGaussianBlur stdDeviation="2"/>
<feComposite in2="hardAlpha" operator="arithmetic" k2="-1" k3="1"/>
<feColorMatrix type="matrix" values="0 0 0 0 0 0 0 0 0 0 0 0 0 0 0 0 0 0 0.25 0"/>
<feBlend mode="normal" in2="shape" result="effect1_innerShadow_991_9"/>
</filter>
</defs>
</svg>
