<svg width="52" height="29" viewBox="0 0 52 29" fill="none" xmlns="http://www.w3.org/2000/svg">
<path d="M49.1736 27L45.1204 24.3158C40.9736 21.5696 41.1778 15.4954 45.5 13.0254L47.3765 11.9558C50.773 10.0147 50.8564 5.40011 47.7149 3.0796C46.7662 2.37882 45.6122 2 44.4263 2H12.6344C12.1352 2 11.637 2.04482 11.146 2.1339L9.53945 2.42536C0.983914 3.97754 0.884275 16.0186 9.41299 17.708C10.1618 17.9292 13.5014 18.3717 15.4782 18.3717M10.0869 9.89922H14.1348C24.7825 10.5138 24.9832 25.895 14.355 26.7788H2M39.2896 9.07965H34.5722V27" stroke="white" stroke-width="3" stroke-linecap="round" stroke-linejoin="round"/>
</svg>
